<svg viewBox="0 0 843 843" xmlns="http://www.w3.org/2000/svg"><path d="m-0-0h843v843h-843z" fill="#041320"/><path d="m742.251 442.556s-3.07 5.963-14.155 10.328c-36.701 14.449-120.163 47.308-157.746 62.105-8.459 3.453-13.448-.883-13.448-.883s-5.519-3.181-5.519-10.788c0-2.395 0-4.846 0-7.248 0-10.288 3.212-15.816 3.212-15.816s3.803-6.36 14.763-10.29c28.211-10.118 82.557-29.607 110.638-39.677 10.839-3.887 8.419-6.195 8.419-6.195s2.387-2.654-8.496-6.529c-28.076-9.998-82.269-29.296-110.479-39.341-11.006-3.92-14.076-8.754-14.076-8.754s-3.981-7.253-3.981-17.653c0-1.968 0-3.967 0-5.935.151-8.873 5.519-11.802 5.519-11.802s5.312-3.998 12.423-1.102c37.037 14.546 121.579 47.751 158.67 62.319 11.145 4.377 14.256 11.102 14.256 11.102s3.75 5.425 3.75 15.516v4.264c0 10.133-3.75 16.379-3.75 16.379zm-363.941 117.313c-5.049 10.814-9.689 13.14-9.689 13.14s-7.648 3.981-17.381 3.981c-.699 0-1.401 0-2.101 0-7.1-.124-11.281-5.52-11.281-5.52s-3.97-4.73-.361-11.34c25.004-53.558 102.493-219.538 128.352-274.925 5.356-11.474 10.443-13.781 10.443-13.781s7.449-4.421 17.21-4.421h1.729c7.145-.023 11.056 5.19 11.056 5.19s4.419 4.361.506 12.469c-25.56 54.749-103.268 221.197-128.483 275.207zm-103.635-44.998c-37.037-14.546-121.579-47.751-158.67-62.319-11.145-4.377-14.256-11.102-14.256-11.102s-3.75-5.425-3.75-15.516c0-1.417 0-2.847 0-4.264 0-10.133 3.75-16.379 3.75-16.379s3.07-5.964 14.155-10.328c36.701-14.449 120.163-47.309 157.747-62.105 8.458-3.454 13.447.883 13.447.883s5.519 3.181 5.519 10.788v7.248c0 10.288-3.212 15.816-3.212 15.816s-3.803 6.36-14.763 10.29c-28.211 10.117-82.557 29.607-110.638 39.677-10.839 3.887-8.419 6.195-8.419 6.195s-2.387 2.653 8.496 6.529c28.076 9.998 82.27 29.296 110.479 39.341 11.006 3.92 14.076 8.754 14.076 8.754s3.981 7.252 3.981 17.653v5.934c-.151 8.874-5.519 11.803-5.519 11.803s-5.312 3.998-12.423 1.102z" fill="#fff"/></svg>